M48
;GenerationSoftware,Autodesk,EAGLE,9.7.0*%
;CreationDate,2020-04-17T20:19:47Z*%
FMAT,2
ICI,OFF
METRIC,TZ,000.000
T4C0.305
T3C0.350
T2C1.016
T1C3.000
%
G90
M71
T1
X-43400Y0
X43400Y0
T2
X47700Y2540
X-48000Y-2540
X-48000Y0
X-48000Y2540
X47700Y-2540
X47700Y0
T3
X14500Y-43050
X28650Y-36050
X39300Y-24350
X45800Y6600
X41200Y21500
X30350Y34300
X16850Y42950
X1300Y46200
X-14550Y43850
X-28650Y36150
X-39250Y24200
X-45250Y8850
X-28600Y15500
X-17500Y27900
X-1300Y33250
X15550Y29500
X28100Y17800
X32400Y2450
X29250Y-15450
X17700Y-28100
X1250Y-33250
X-15500Y-29400
X-1300Y18150
X16350Y-8000
X1250Y-18150
X-15050Y-10050
X2000Y-2600
X15100Y10300
X-26600Y-18100
X-30600Y-900
X-29600Y-1500
X-47000Y-12000
X-47000Y-13400
X-40200Y-27600
X-39200Y-29400
X-28100Y-39900
X-26700Y-41100
X46800Y-7300
X13000Y46650
X11600Y47200
X-33550Y700
X-33950Y-700
X-12800Y-46900
X-11050Y-47350
X3750Y-48450
X5150Y-48250
X20350Y-44100
X21900Y-43400
X34050Y-34500
X35100Y-33600
X43900Y-20700
X44600Y-19350
X47100Y12400
X46600Y13700
X40000Y27550
X39150Y28700
X28100Y39300
X27150Y40200
X-4050Y48600
X-5600Y48300
X-20250Y44250
X-21600Y43500
X-34050Y34500
X-35100Y33550
X-44050Y20600
X-44600Y19400
X-47200Y7150
X-27850Y-14050
X-28900Y-13000
X-17250Y-26500
X-18700Y-25950
X-31607Y1690
X-31600Y3100
X-26600Y17200
X-25900Y18700
X-14350Y28200
X-12900Y29100
X1650Y31600
X3400Y31600
X17350Y26650
X18700Y25950
X28450Y14250
X29200Y12900
X31800Y-1800
X31850Y-3300
X32500Y350
X26600Y-17300
X25800Y-18650
X-16000Y6400
X13050Y-29100
X-1700Y-31750
X-3300Y-31800
X-17350Y50
X-15750Y50
X15300Y6750
X16250Y5550
X450Y-1450
X-950Y1650
X450Y250
X1600Y16550
X3250Y16600
X13700Y-9900
X12900Y-11300
X14400Y-28250
X-3200Y-16700
X-15050Y-6700
X-13550Y9600
X-12800Y11100
X45300Y-2000
X-45800Y-6600
X-41000Y-22000
X-30300Y-34500
X-16600Y-42600
X45400Y-10000
X-33250Y-1400
X-1050Y-45650
X-1550Y-16700
T4
X15650Y0
X17550Y0
M30