G04 EAGLE Gerber RS-274X export*
G75*
%MOMM*%
%FSLAX34Y34*%
%LPD*%
%INTop Solder Mask*%
%IPPOS*%
%AMOC8*
5,1,8,0,0,1.08239X$1,22.5*%
G01*
%ADD10C,3.101600*%
%ADD11R,1.601600X1.001600*%
%ADD12R,1.001600X1.601600*%
%ADD13C,1.625600*%


D10*
X-434000Y0D03*
X434000Y0D03*
D11*
G36*
X-409806Y-255329D02*
X-401798Y-269199D01*
X-410472Y-274207D01*
X-418480Y-260337D01*
X-409806Y-255329D01*
G37*
G36*
X-381228Y-238829D02*
X-373220Y-252699D01*
X-381894Y-257707D01*
X-389902Y-243837D01*
X-381228Y-238829D01*
G37*
G36*
X-434306Y-212893D02*
X-426298Y-226763D01*
X-434972Y-231771D01*
X-442980Y-217901D01*
X-434306Y-212893D01*
G37*
G36*
X-405728Y-196393D02*
X-397720Y-210263D01*
X-406394Y-215271D01*
X-414402Y-201401D01*
X-405728Y-196393D01*
G37*
G36*
X472754Y98338D02*
X469973Y114109D01*
X479836Y115848D01*
X482617Y100077D01*
X472754Y98338D01*
G37*
G36*
X440255Y92608D02*
X437474Y108379D01*
X447337Y110118D01*
X450118Y94347D01*
X440255Y92608D01*
G37*
G36*
X481263Y50082D02*
X478482Y65853D01*
X488345Y67592D01*
X491126Y51821D01*
X481263Y50082D01*
G37*
G36*
X448764Y44352D02*
X445983Y60123D01*
X455846Y61862D01*
X458627Y46091D01*
X448764Y44352D01*
G37*
G36*
X409106Y255129D02*
X401098Y268999D01*
X409772Y274007D01*
X417780Y260137D01*
X409106Y255129D01*
G37*
G36*
X380528Y238629D02*
X372520Y252499D01*
X381194Y257507D01*
X389202Y243637D01*
X380528Y238629D01*
G37*
G36*
X433606Y212693D02*
X425598Y226563D01*
X434272Y231571D01*
X442280Y217701D01*
X433606Y212693D01*
G37*
G36*
X405028Y196193D02*
X397020Y210063D01*
X405694Y215071D01*
X413702Y201201D01*
X405028Y196193D01*
G37*
G36*
X297253Y379505D02*
X284985Y389799D01*
X291423Y397471D01*
X303691Y387177D01*
X297253Y379505D01*
G37*
G36*
X276041Y354226D02*
X263773Y364520D01*
X270211Y372192D01*
X282479Y361898D01*
X276041Y354226D01*
G37*
G36*
X334789Y348008D02*
X322521Y358302D01*
X328959Y365974D01*
X341227Y355680D01*
X334789Y348008D01*
G37*
G36*
X313577Y322729D02*
X301309Y333023D01*
X307747Y340695D01*
X320015Y330401D01*
X313577Y322729D01*
G37*
G36*
X148833Y457340D02*
X133784Y462817D01*
X137209Y472228D01*
X152258Y466751D01*
X148833Y457340D01*
G37*
G36*
X137546Y426331D02*
X122497Y431808D01*
X125922Y441219D01*
X140971Y435742D01*
X137546Y426331D01*
G37*
G36*
X194878Y440581D02*
X179829Y446058D01*
X183254Y455469D01*
X198303Y449992D01*
X194878Y440581D01*
G37*
G36*
X183591Y409572D02*
X168542Y415049D01*
X171967Y424460D01*
X187016Y418983D01*
X183591Y409572D01*
G37*
X-24700Y486900D03*
X-24700Y453900D03*
X24300Y486900D03*
X24300Y453900D03*
G36*
X-180129Y447558D02*
X-195178Y442081D01*
X-198603Y451492D01*
X-183554Y456969D01*
X-180129Y447558D01*
G37*
G36*
X-168842Y416549D02*
X-183891Y411072D01*
X-187316Y420483D01*
X-172267Y425960D01*
X-168842Y416549D01*
G37*
G36*
X-134084Y464317D02*
X-149133Y458840D01*
X-152558Y468251D01*
X-137509Y473728D01*
X-134084Y464317D01*
G37*
G36*
X-122797Y433308D02*
X-137846Y427831D01*
X-141271Y437242D01*
X-126222Y442719D01*
X-122797Y433308D01*
G37*
G36*
X-323321Y359602D02*
X-335589Y349308D01*
X-342027Y356980D01*
X-329759Y367274D01*
X-323321Y359602D01*
G37*
G36*
X-302109Y334323D02*
X-314377Y324029D01*
X-320815Y331701D01*
X-308547Y341995D01*
X-302109Y334323D01*
G37*
G36*
X-285785Y391099D02*
X-298053Y380805D01*
X-304491Y388477D01*
X-292223Y398771D01*
X-285785Y391099D01*
G37*
G36*
X-264573Y365820D02*
X-276841Y355526D01*
X-283279Y363198D01*
X-271011Y373492D01*
X-264573Y365820D01*
G37*
G36*
X-426098Y227363D02*
X-434106Y213493D01*
X-442780Y218501D01*
X-434772Y232371D01*
X-426098Y227363D01*
G37*
G36*
X-397520Y210863D02*
X-405528Y196993D01*
X-414202Y202001D01*
X-406194Y215871D01*
X-397520Y210863D01*
G37*
G36*
X-401598Y269799D02*
X-409606Y255929D01*
X-418280Y260937D01*
X-410272Y274807D01*
X-401598Y269799D01*
G37*
G36*
X-373020Y253299D02*
X-381028Y239429D01*
X-389702Y244437D01*
X-381694Y258307D01*
X-373020Y253299D01*
G37*
G36*
X-478682Y64353D02*
X-481463Y48582D01*
X-491326Y50321D01*
X-488545Y66092D01*
X-478682Y64353D01*
G37*
G36*
X-446183Y58623D02*
X-448964Y42852D01*
X-458827Y44591D01*
X-456046Y60362D01*
X-446183Y58623D01*
G37*
G36*
X-470173Y112609D02*
X-472954Y96838D01*
X-482817Y98577D01*
X-480036Y114348D01*
X-470173Y112609D01*
G37*
G36*
X-437674Y106879D02*
X-440455Y91108D01*
X-450318Y92847D01*
X-447537Y108618D01*
X-437674Y106879D01*
G37*
D12*
X-298100Y24100D03*
X-331100Y24100D03*
X-298100Y-24900D03*
X-331100Y-24900D03*
D11*
G36*
X-470654Y-97138D02*
X-467873Y-112909D01*
X-477736Y-114648D01*
X-480517Y-98877D01*
X-470654Y-97138D01*
G37*
G36*
X-438155Y-91408D02*
X-435374Y-107179D01*
X-445237Y-108918D01*
X-448018Y-93147D01*
X-438155Y-91408D01*
G37*
G36*
X-479163Y-48882D02*
X-476382Y-64653D01*
X-486245Y-66392D01*
X-489026Y-50621D01*
X-479163Y-48882D01*
G37*
G36*
X-446664Y-43152D02*
X-443883Y-58923D01*
X-453746Y-60662D01*
X-456527Y-44891D01*
X-446664Y-43152D01*
G37*
G36*
X-254402Y165737D02*
X-246394Y179607D01*
X-237720Y174599D01*
X-245728Y160729D01*
X-254402Y165737D01*
G37*
G36*
X-282980Y182237D02*
X-274972Y196107D01*
X-266298Y191099D01*
X-274306Y177229D01*
X-282980Y182237D01*
G37*
G36*
X-278902Y123301D02*
X-270894Y137171D01*
X-262220Y132163D01*
X-270228Y118293D01*
X-278902Y123301D01*
G37*
G36*
X-307480Y139801D02*
X-299472Y153671D01*
X-290798Y148663D01*
X-298806Y134793D01*
X-307480Y139801D01*
G37*
G36*
X-136271Y269894D02*
X-122401Y277902D01*
X-117393Y269228D01*
X-131263Y261220D01*
X-136271Y269894D01*
G37*
G36*
X-152771Y298472D02*
X-138901Y306480D01*
X-133893Y297806D01*
X-147763Y289798D01*
X-152771Y298472D01*
G37*
G36*
X-178707Y245394D02*
X-164837Y253402D01*
X-159829Y244728D01*
X-173699Y236720D01*
X-178707Y245394D01*
G37*
G36*
X-195207Y273972D02*
X-181337Y281980D01*
X-176329Y273306D01*
X-190199Y265298D01*
X-195207Y273972D01*
G37*
X24800Y299100D03*
X24800Y332100D03*
X-24200Y299100D03*
X-24200Y332100D03*
G36*
X166937Y255902D02*
X180807Y247894D01*
X175799Y239220D01*
X161929Y247228D01*
X166937Y255902D01*
G37*
G36*
X183437Y284480D02*
X197307Y276472D01*
X192299Y267798D01*
X178429Y275806D01*
X183437Y284480D01*
G37*
G36*
X124501Y280402D02*
X138371Y272394D01*
X133363Y263720D01*
X119493Y271728D01*
X124501Y280402D01*
G37*
G36*
X141001Y308980D02*
X154871Y300972D01*
X149863Y292298D01*
X135993Y300306D01*
X141001Y308980D01*
G37*
G36*
X271394Y137971D02*
X279402Y124101D01*
X270728Y119093D01*
X262720Y132963D01*
X271394Y137971D01*
G37*
G36*
X299972Y154471D02*
X307980Y140601D01*
X299306Y135593D01*
X291298Y149463D01*
X299972Y154471D01*
G37*
G36*
X246894Y180407D02*
X254902Y166537D01*
X246228Y161529D01*
X238220Y175399D01*
X246894Y180407D01*
G37*
G36*
X275472Y196907D02*
X283480Y183037D01*
X274806Y178029D01*
X266798Y191899D01*
X275472Y196907D01*
G37*
D12*
X299100Y-24600D03*
X332100Y-24600D03*
X299100Y24400D03*
X332100Y24400D03*
D11*
G36*
X253902Y-165237D02*
X245894Y-179107D01*
X237220Y-174099D01*
X245228Y-160229D01*
X253902Y-165237D01*
G37*
G36*
X282480Y-181737D02*
X274472Y-195607D01*
X265798Y-190599D01*
X273806Y-176729D01*
X282480Y-181737D01*
G37*
G36*
X278402Y-122801D02*
X270394Y-136671D01*
X261720Y-131663D01*
X269728Y-117793D01*
X278402Y-122801D01*
G37*
G36*
X306980Y-139301D02*
X298972Y-153171D01*
X290298Y-148163D01*
X298306Y-134293D01*
X306980Y-139301D01*
G37*
G36*
X137771Y-271394D02*
X123901Y-279402D01*
X118893Y-270728D01*
X132763Y-262720D01*
X137771Y-271394D01*
G37*
G36*
X154271Y-299972D02*
X140401Y-307980D01*
X135393Y-299306D01*
X149263Y-291298D01*
X154271Y-299972D01*
G37*
G36*
X180207Y-246894D02*
X166337Y-254902D01*
X161329Y-246228D01*
X175199Y-238220D01*
X180207Y-246894D01*
G37*
G36*
X196707Y-275472D02*
X182837Y-283480D01*
X177829Y-274806D01*
X191699Y-266798D01*
X196707Y-275472D01*
G37*
X-24800Y-299100D03*
X-24800Y-332100D03*
X24200Y-299100D03*
X24200Y-332100D03*
G36*
X-166437Y-254902D02*
X-180307Y-246894D01*
X-175299Y-238220D01*
X-161429Y-246228D01*
X-166437Y-254902D01*
G37*
G36*
X-182937Y-283480D02*
X-196807Y-275472D01*
X-191799Y-266798D01*
X-177929Y-274806D01*
X-182937Y-283480D01*
G37*
G36*
X-124001Y-279402D02*
X-137871Y-271394D01*
X-132863Y-262720D01*
X-118993Y-270728D01*
X-124001Y-279402D01*
G37*
G36*
X-140501Y-307980D02*
X-154371Y-299972D01*
X-149363Y-291298D01*
X-135493Y-299306D01*
X-140501Y-307980D01*
G37*
G36*
X-297553Y-380805D02*
X-285285Y-391099D01*
X-291723Y-398771D01*
X-303991Y-388477D01*
X-297553Y-380805D01*
G37*
G36*
X-276341Y-355526D02*
X-264073Y-365820D01*
X-270511Y-373492D01*
X-282779Y-363198D01*
X-276341Y-355526D01*
G37*
G36*
X-335089Y-349308D02*
X-322821Y-359602D01*
X-329259Y-367274D01*
X-341527Y-356980D01*
X-335089Y-349308D01*
G37*
G36*
X-313877Y-324029D02*
X-301609Y-334323D01*
X-308047Y-341995D01*
X-320315Y-331701D01*
X-313877Y-324029D01*
G37*
G36*
X-270394Y-136471D02*
X-278402Y-122601D01*
X-269728Y-117593D01*
X-261720Y-131463D01*
X-270394Y-136471D01*
G37*
G36*
X-298972Y-152971D02*
X-306980Y-139101D01*
X-298306Y-134093D01*
X-290298Y-147963D01*
X-298972Y-152971D01*
G37*
G36*
X-245894Y-178907D02*
X-253902Y-165037D01*
X-245228Y-160029D01*
X-237220Y-173899D01*
X-245894Y-178907D01*
G37*
G36*
X-274472Y-195407D02*
X-282480Y-181537D01*
X-273806Y-176529D01*
X-265798Y-190399D01*
X-274472Y-195407D01*
G37*
G36*
X-123202Y90137D02*
X-115194Y104007D01*
X-106520Y98999D01*
X-114528Y85129D01*
X-123202Y90137D01*
G37*
G36*
X-151780Y106637D02*
X-143772Y120507D01*
X-135098Y115499D01*
X-143106Y101629D01*
X-151780Y106637D01*
G37*
G36*
X-147702Y47701D02*
X-139694Y61571D01*
X-131020Y56563D01*
X-139028Y42693D01*
X-147702Y47701D01*
G37*
G36*
X-176280Y64201D02*
X-168272Y78071D01*
X-159598Y73063D01*
X-167606Y59193D01*
X-176280Y64201D01*
G37*
X24700Y148100D03*
X24700Y181100D03*
X-24300Y148100D03*
X-24300Y181100D03*
G36*
X141494Y63071D02*
X149502Y49201D01*
X140828Y44193D01*
X132820Y58063D01*
X141494Y63071D01*
G37*
G36*
X170072Y79571D02*
X178080Y65701D01*
X169406Y60693D01*
X161398Y74563D01*
X170072Y79571D01*
G37*
G36*
X116994Y105507D02*
X125002Y91637D01*
X116328Y86629D01*
X108320Y100499D01*
X116994Y105507D01*
G37*
G36*
X145572Y122007D02*
X153580Y108137D01*
X144906Y103129D01*
X136898Y116999D01*
X145572Y122007D01*
G37*
G36*
X125502Y-91637D02*
X117494Y-105507D01*
X108820Y-100499D01*
X116828Y-86629D01*
X125502Y-91637D01*
G37*
G36*
X154080Y-108137D02*
X146072Y-122007D01*
X137398Y-116999D01*
X145406Y-103129D01*
X154080Y-108137D01*
G37*
G36*
X150002Y-49201D02*
X141994Y-63071D01*
X133320Y-58063D01*
X141328Y-44193D01*
X150002Y-49201D01*
G37*
G36*
X178580Y-65701D02*
X170572Y-79571D01*
X161898Y-74563D01*
X169906Y-60693D01*
X178580Y-65701D01*
G37*
X-24900Y-148100D03*
X-24900Y-181100D03*
X24100Y-148100D03*
X24100Y-181100D03*
G36*
X-140794Y-62071D02*
X-148802Y-48201D01*
X-140128Y-43193D01*
X-132120Y-57063D01*
X-140794Y-62071D01*
G37*
G36*
X-169372Y-78571D02*
X-177380Y-64701D01*
X-168706Y-59693D01*
X-160698Y-73563D01*
X-169372Y-78571D01*
G37*
G36*
X-116294Y-104507D02*
X-124302Y-90637D01*
X-115628Y-85629D01*
X-107620Y-99499D01*
X-116294Y-104507D01*
G37*
G36*
X-144872Y-121007D02*
X-152880Y-107137D01*
X-144206Y-102129D01*
X-136198Y-115999D01*
X-144872Y-121007D01*
G37*
X-24100Y16400D03*
X-24100Y-16600D03*
X24900Y16400D03*
X24900Y-16600D03*
G36*
X-149133Y-458840D02*
X-134084Y-464317D01*
X-137509Y-473728D01*
X-152558Y-468251D01*
X-149133Y-458840D01*
G37*
G36*
X-137846Y-427831D02*
X-122797Y-433308D01*
X-126222Y-442719D01*
X-141271Y-437242D01*
X-137846Y-427831D01*
G37*
G36*
X-195178Y-442081D02*
X-180129Y-447558D01*
X-183554Y-456969D01*
X-198603Y-451492D01*
X-195178Y-442081D01*
G37*
G36*
X-183891Y-411072D02*
X-168842Y-416549D01*
X-172267Y-425960D01*
X-187316Y-420483D01*
X-183891Y-411072D01*
G37*
X24900Y-487900D03*
X24900Y-454900D03*
X-24100Y-487900D03*
X-24100Y-454900D03*
G36*
X179929Y-446558D02*
X194978Y-441081D01*
X198403Y-450492D01*
X183354Y-455969D01*
X179929Y-446558D01*
G37*
G36*
X168642Y-415549D02*
X183691Y-410072D01*
X187116Y-419483D01*
X172067Y-424960D01*
X168642Y-415549D01*
G37*
G36*
X133884Y-463317D02*
X148933Y-457840D01*
X152358Y-467251D01*
X137309Y-472728D01*
X133884Y-463317D01*
G37*
G36*
X122597Y-432308D02*
X137646Y-426831D01*
X141071Y-436242D01*
X126022Y-441719D01*
X122597Y-432308D01*
G37*
G36*
X321621Y-357602D02*
X333889Y-347308D01*
X340327Y-354980D01*
X328059Y-365274D01*
X321621Y-357602D01*
G37*
G36*
X300409Y-332323D02*
X312677Y-322029D01*
X319115Y-329701D01*
X306847Y-339995D01*
X300409Y-332323D01*
G37*
G36*
X284085Y-389099D02*
X296353Y-378805D01*
X302791Y-386477D01*
X290523Y-396771D01*
X284085Y-389099D01*
G37*
G36*
X262873Y-363820D02*
X275141Y-353526D01*
X281579Y-361198D01*
X269311Y-371492D01*
X262873Y-363820D01*
G37*
G36*
X425898Y-226863D02*
X433906Y-212993D01*
X442580Y-218001D01*
X434572Y-231871D01*
X425898Y-226863D01*
G37*
G36*
X397320Y-210363D02*
X405328Y-196493D01*
X414002Y-201501D01*
X405994Y-215371D01*
X397320Y-210363D01*
G37*
G36*
X401398Y-269299D02*
X409406Y-255429D01*
X418080Y-260437D01*
X410072Y-274307D01*
X401398Y-269299D01*
G37*
G36*
X372820Y-252799D02*
X380828Y-238929D01*
X389502Y-243937D01*
X381494Y-257807D01*
X372820Y-252799D01*
G37*
G36*
X476382Y-66653D02*
X479163Y-50882D01*
X489026Y-52621D01*
X486245Y-68392D01*
X476382Y-66653D01*
G37*
G36*
X443883Y-60923D02*
X446664Y-45152D01*
X456527Y-46891D01*
X453746Y-62662D01*
X443883Y-60923D01*
G37*
G36*
X467873Y-114909D02*
X470654Y-99138D01*
X480517Y-100877D01*
X477736Y-116648D01*
X467873Y-114909D01*
G37*
G36*
X435374Y-109179D02*
X438155Y-93408D01*
X448018Y-95147D01*
X445237Y-110918D01*
X435374Y-109179D01*
G37*
D13*
X-480000Y-25400D03*
X-480000Y0D03*
X-480000Y25400D03*
X477000Y-25400D03*
X477000Y0D03*
X477000Y25400D03*
M02*
