G04 EAGLE Gerber RS-274X export*
G75*
%MOMM*%
%FSLAX34Y34*%
%LPD*%
%INTop Paste*%
%IPPOS*%
%AMOC8*
5,1,8,0,0,1.08239X$1,22.5*%
G01*
%ADD10R,1.500000X0.900000*%
%ADD11R,0.900000X1.500000*%


D10*
G36*
X-409992Y-256023D02*
X-402492Y-269013D01*
X-410286Y-273513D01*
X-417786Y-260523D01*
X-409992Y-256023D01*
G37*
G36*
X-381414Y-239523D02*
X-373914Y-252513D01*
X-381708Y-257013D01*
X-389208Y-244023D01*
X-381414Y-239523D01*
G37*
G36*
X-434492Y-213587D02*
X-426992Y-226577D01*
X-434786Y-231077D01*
X-442286Y-218087D01*
X-434492Y-213587D01*
G37*
G36*
X-405914Y-197087D02*
X-398414Y-210077D01*
X-406208Y-214577D01*
X-413708Y-201587D01*
X-405914Y-197087D01*
G37*
G36*
X473166Y98926D02*
X470562Y113697D01*
X479424Y115260D01*
X482028Y100489D01*
X473166Y98926D01*
G37*
G36*
X440667Y93196D02*
X438063Y107967D01*
X446925Y109530D01*
X449529Y94759D01*
X440667Y93196D01*
G37*
G36*
X481675Y50670D02*
X479071Y65441D01*
X487933Y67004D01*
X490537Y52233D01*
X481675Y50670D01*
G37*
G36*
X449176Y44940D02*
X446572Y59711D01*
X455434Y61274D01*
X458038Y46503D01*
X449176Y44940D01*
G37*
G36*
X409292Y255823D02*
X401792Y268813D01*
X409586Y273313D01*
X417086Y260323D01*
X409292Y255823D01*
G37*
G36*
X380714Y239323D02*
X373214Y252313D01*
X381008Y256813D01*
X388508Y243823D01*
X380714Y239323D01*
G37*
G36*
X433792Y213387D02*
X426292Y226377D01*
X434086Y230877D01*
X441586Y217887D01*
X433792Y213387D01*
G37*
G36*
X405214Y196887D02*
X397714Y209877D01*
X405508Y214377D01*
X413008Y201387D01*
X405214Y196887D01*
G37*
G36*
X297190Y380220D02*
X285701Y389861D01*
X291486Y396756D01*
X302975Y387115D01*
X297190Y380220D01*
G37*
G36*
X275978Y354941D02*
X264489Y364582D01*
X270274Y371477D01*
X281763Y361836D01*
X275978Y354941D01*
G37*
G36*
X334726Y348723D02*
X323237Y358364D01*
X329022Y365259D01*
X340511Y355618D01*
X334726Y348723D01*
G37*
G36*
X313514Y323444D02*
X302025Y333085D01*
X307810Y339980D01*
X319299Y330339D01*
X313514Y323444D01*
G37*
G36*
X148529Y457991D02*
X134435Y463121D01*
X137513Y471577D01*
X151607Y466447D01*
X148529Y457991D01*
G37*
G36*
X137242Y426982D02*
X123148Y432112D01*
X126226Y440568D01*
X140320Y435438D01*
X137242Y426982D01*
G37*
G36*
X194574Y441232D02*
X180480Y446362D01*
X183558Y454818D01*
X197652Y449688D01*
X194574Y441232D01*
G37*
G36*
X183287Y410223D02*
X169193Y415353D01*
X172271Y423809D01*
X186365Y418679D01*
X183287Y410223D01*
G37*
X-24700Y486900D03*
X-24700Y453900D03*
X24300Y486900D03*
X24300Y453900D03*
G36*
X-180780Y447862D02*
X-194874Y442732D01*
X-197952Y451188D01*
X-183858Y456318D01*
X-180780Y447862D01*
G37*
G36*
X-169493Y416853D02*
X-183587Y411723D01*
X-186665Y420179D01*
X-172571Y425309D01*
X-169493Y416853D01*
G37*
G36*
X-134735Y464621D02*
X-148829Y459491D01*
X-151907Y467947D01*
X-137813Y473077D01*
X-134735Y464621D01*
G37*
G36*
X-123448Y433612D02*
X-137542Y428482D01*
X-140620Y436938D01*
X-126526Y442068D01*
X-123448Y433612D01*
G37*
G36*
X-324037Y359664D02*
X-335526Y350023D01*
X-341311Y356918D01*
X-329822Y366559D01*
X-324037Y359664D01*
G37*
G36*
X-302825Y334385D02*
X-314314Y324744D01*
X-320099Y331639D01*
X-308610Y341280D01*
X-302825Y334385D01*
G37*
G36*
X-286501Y391161D02*
X-297990Y381520D01*
X-303775Y388415D01*
X-292286Y398056D01*
X-286501Y391161D01*
G37*
G36*
X-265289Y365882D02*
X-276778Y356241D01*
X-282563Y363136D01*
X-271074Y372777D01*
X-265289Y365882D01*
G37*
G36*
X-426792Y227177D02*
X-434292Y214187D01*
X-442086Y218687D01*
X-434586Y231677D01*
X-426792Y227177D01*
G37*
G36*
X-398214Y210677D02*
X-405714Y197687D01*
X-413508Y202187D01*
X-406008Y215177D01*
X-398214Y210677D01*
G37*
G36*
X-402292Y269613D02*
X-409792Y256623D01*
X-417586Y261123D01*
X-410086Y274113D01*
X-402292Y269613D01*
G37*
G36*
X-373714Y253113D02*
X-381214Y240123D01*
X-389008Y244623D01*
X-381508Y257613D01*
X-373714Y253113D01*
G37*
G36*
X-479271Y63941D02*
X-481875Y49170D01*
X-490737Y50733D01*
X-488133Y65504D01*
X-479271Y63941D01*
G37*
G36*
X-446772Y58211D02*
X-449376Y43440D01*
X-458238Y45003D01*
X-455634Y59774D01*
X-446772Y58211D01*
G37*
G36*
X-470762Y112197D02*
X-473366Y97426D01*
X-482228Y98989D01*
X-479624Y113760D01*
X-470762Y112197D01*
G37*
G36*
X-438263Y106467D02*
X-440867Y91696D01*
X-449729Y93259D01*
X-447125Y108030D01*
X-438263Y106467D01*
G37*
D11*
X-298100Y24100D03*
X-331100Y24100D03*
X-298100Y-24900D03*
X-331100Y-24900D03*
D10*
G36*
X-471066Y-97726D02*
X-468462Y-112497D01*
X-477324Y-114060D01*
X-479928Y-99289D01*
X-471066Y-97726D01*
G37*
G36*
X-438567Y-91996D02*
X-435963Y-106767D01*
X-444825Y-108330D01*
X-447429Y-93559D01*
X-438567Y-91996D01*
G37*
G36*
X-479575Y-49470D02*
X-476971Y-64241D01*
X-485833Y-65804D01*
X-488437Y-51033D01*
X-479575Y-49470D01*
G37*
G36*
X-447076Y-43740D02*
X-444472Y-58511D01*
X-453334Y-60074D01*
X-455938Y-45303D01*
X-447076Y-43740D01*
G37*
G36*
X-253708Y165923D02*
X-246208Y178913D01*
X-238414Y174413D01*
X-245914Y161423D01*
X-253708Y165923D01*
G37*
G36*
X-282286Y182423D02*
X-274786Y195413D01*
X-266992Y190913D01*
X-274492Y177923D01*
X-282286Y182423D01*
G37*
G36*
X-278208Y123487D02*
X-270708Y136477D01*
X-262914Y131977D01*
X-270414Y118987D01*
X-278208Y123487D01*
G37*
G36*
X-306786Y139987D02*
X-299286Y152977D01*
X-291492Y148477D01*
X-298992Y135487D01*
X-306786Y139987D01*
G37*
G36*
X-135577Y269708D02*
X-122587Y277208D01*
X-118087Y269414D01*
X-131077Y261914D01*
X-135577Y269708D01*
G37*
G36*
X-152077Y298286D02*
X-139087Y305786D01*
X-134587Y297992D01*
X-147577Y290492D01*
X-152077Y298286D01*
G37*
G36*
X-178013Y245208D02*
X-165023Y252708D01*
X-160523Y244914D01*
X-173513Y237414D01*
X-178013Y245208D01*
G37*
G36*
X-194513Y273786D02*
X-181523Y281286D01*
X-177023Y273492D01*
X-190013Y265992D01*
X-194513Y273786D01*
G37*
X24800Y299100D03*
X24800Y332100D03*
X-24200Y299100D03*
X-24200Y332100D03*
G36*
X167123Y255208D02*
X180113Y247708D01*
X175613Y239914D01*
X162623Y247414D01*
X167123Y255208D01*
G37*
G36*
X183623Y283786D02*
X196613Y276286D01*
X192113Y268492D01*
X179123Y275992D01*
X183623Y283786D01*
G37*
G36*
X124687Y279708D02*
X137677Y272208D01*
X133177Y264414D01*
X120187Y271914D01*
X124687Y279708D01*
G37*
G36*
X141187Y308286D02*
X154177Y300786D01*
X149677Y292992D01*
X136687Y300492D01*
X141187Y308286D01*
G37*
G36*
X271208Y137277D02*
X278708Y124287D01*
X270914Y119787D01*
X263414Y132777D01*
X271208Y137277D01*
G37*
G36*
X299786Y153777D02*
X307286Y140787D01*
X299492Y136287D01*
X291992Y149277D01*
X299786Y153777D01*
G37*
G36*
X246708Y179713D02*
X254208Y166723D01*
X246414Y162223D01*
X238914Y175213D01*
X246708Y179713D01*
G37*
G36*
X275286Y196213D02*
X282786Y183223D01*
X274992Y178723D01*
X267492Y191713D01*
X275286Y196213D01*
G37*
D11*
X299100Y-24600D03*
X332100Y-24600D03*
X299100Y24400D03*
X332100Y24400D03*
D10*
G36*
X253208Y-165423D02*
X245708Y-178413D01*
X237914Y-173913D01*
X245414Y-160923D01*
X253208Y-165423D01*
G37*
G36*
X281786Y-181923D02*
X274286Y-194913D01*
X266492Y-190413D01*
X273992Y-177423D01*
X281786Y-181923D01*
G37*
G36*
X277708Y-122987D02*
X270208Y-135977D01*
X262414Y-131477D01*
X269914Y-118487D01*
X277708Y-122987D01*
G37*
G36*
X306286Y-139487D02*
X298786Y-152477D01*
X290992Y-147977D01*
X298492Y-134987D01*
X306286Y-139487D01*
G37*
G36*
X137077Y-271208D02*
X124087Y-278708D01*
X119587Y-270914D01*
X132577Y-263414D01*
X137077Y-271208D01*
G37*
G36*
X153577Y-299786D02*
X140587Y-307286D01*
X136087Y-299492D01*
X149077Y-291992D01*
X153577Y-299786D01*
G37*
G36*
X179513Y-246708D02*
X166523Y-254208D01*
X162023Y-246414D01*
X175013Y-238914D01*
X179513Y-246708D01*
G37*
G36*
X196013Y-275286D02*
X183023Y-282786D01*
X178523Y-274992D01*
X191513Y-267492D01*
X196013Y-275286D01*
G37*
X-24800Y-299100D03*
X-24800Y-332100D03*
X24200Y-299100D03*
X24200Y-332100D03*
G36*
X-166623Y-254208D02*
X-179613Y-246708D01*
X-175113Y-238914D01*
X-162123Y-246414D01*
X-166623Y-254208D01*
G37*
G36*
X-183123Y-282786D02*
X-196113Y-275286D01*
X-191613Y-267492D01*
X-178623Y-274992D01*
X-183123Y-282786D01*
G37*
G36*
X-124187Y-278708D02*
X-137177Y-271208D01*
X-132677Y-263414D01*
X-119687Y-270914D01*
X-124187Y-278708D01*
G37*
G36*
X-140687Y-307286D02*
X-153677Y-299786D01*
X-149177Y-291992D01*
X-136187Y-299492D01*
X-140687Y-307286D01*
G37*
G36*
X-297490Y-381520D02*
X-286001Y-391161D01*
X-291786Y-398056D01*
X-303275Y-388415D01*
X-297490Y-381520D01*
G37*
G36*
X-276278Y-356241D02*
X-264789Y-365882D01*
X-270574Y-372777D01*
X-282063Y-363136D01*
X-276278Y-356241D01*
G37*
G36*
X-335026Y-350023D02*
X-323537Y-359664D01*
X-329322Y-366559D01*
X-340811Y-356918D01*
X-335026Y-350023D01*
G37*
G36*
X-313814Y-324744D02*
X-302325Y-334385D01*
X-308110Y-341280D01*
X-319599Y-331639D01*
X-313814Y-324744D01*
G37*
G36*
X-270208Y-135777D02*
X-277708Y-122787D01*
X-269914Y-118287D01*
X-262414Y-131277D01*
X-270208Y-135777D01*
G37*
G36*
X-298786Y-152277D02*
X-306286Y-139287D01*
X-298492Y-134787D01*
X-290992Y-147777D01*
X-298786Y-152277D01*
G37*
G36*
X-245708Y-178213D02*
X-253208Y-165223D01*
X-245414Y-160723D01*
X-237914Y-173713D01*
X-245708Y-178213D01*
G37*
G36*
X-274286Y-194713D02*
X-281786Y-181723D01*
X-273992Y-177223D01*
X-266492Y-190213D01*
X-274286Y-194713D01*
G37*
G36*
X-122508Y90323D02*
X-115008Y103313D01*
X-107214Y98813D01*
X-114714Y85823D01*
X-122508Y90323D01*
G37*
G36*
X-151086Y106823D02*
X-143586Y119813D01*
X-135792Y115313D01*
X-143292Y102323D01*
X-151086Y106823D01*
G37*
G36*
X-147008Y47887D02*
X-139508Y60877D01*
X-131714Y56377D01*
X-139214Y43387D01*
X-147008Y47887D01*
G37*
G36*
X-175586Y64387D02*
X-168086Y77377D01*
X-160292Y72877D01*
X-167792Y59887D01*
X-175586Y64387D01*
G37*
X24700Y148100D03*
X24700Y181100D03*
X-24300Y148100D03*
X-24300Y181100D03*
G36*
X141308Y62377D02*
X148808Y49387D01*
X141014Y44887D01*
X133514Y57877D01*
X141308Y62377D01*
G37*
G36*
X169886Y78877D02*
X177386Y65887D01*
X169592Y61387D01*
X162092Y74377D01*
X169886Y78877D01*
G37*
G36*
X116808Y104813D02*
X124308Y91823D01*
X116514Y87323D01*
X109014Y100313D01*
X116808Y104813D01*
G37*
G36*
X145386Y121313D02*
X152886Y108323D01*
X145092Y103823D01*
X137592Y116813D01*
X145386Y121313D01*
G37*
G36*
X124808Y-91823D02*
X117308Y-104813D01*
X109514Y-100313D01*
X117014Y-87323D01*
X124808Y-91823D01*
G37*
G36*
X153386Y-108323D02*
X145886Y-121313D01*
X138092Y-116813D01*
X145592Y-103823D01*
X153386Y-108323D01*
G37*
G36*
X149308Y-49387D02*
X141808Y-62377D01*
X134014Y-57877D01*
X141514Y-44887D01*
X149308Y-49387D01*
G37*
G36*
X177886Y-65887D02*
X170386Y-78877D01*
X162592Y-74377D01*
X170092Y-61387D01*
X177886Y-65887D01*
G37*
X-24900Y-148100D03*
X-24900Y-181100D03*
X24100Y-148100D03*
X24100Y-181100D03*
G36*
X-140608Y-61377D02*
X-148108Y-48387D01*
X-140314Y-43887D01*
X-132814Y-56877D01*
X-140608Y-61377D01*
G37*
G36*
X-169186Y-77877D02*
X-176686Y-64887D01*
X-168892Y-60387D01*
X-161392Y-73377D01*
X-169186Y-77877D01*
G37*
G36*
X-116108Y-103813D02*
X-123608Y-90823D01*
X-115814Y-86323D01*
X-108314Y-99313D01*
X-116108Y-103813D01*
G37*
G36*
X-144686Y-120313D02*
X-152186Y-107323D01*
X-144392Y-102823D01*
X-136892Y-115813D01*
X-144686Y-120313D01*
G37*
X-24100Y16400D03*
X-24100Y-16600D03*
X24900Y16400D03*
X24900Y-16600D03*
G36*
X-148829Y-459491D02*
X-134735Y-464621D01*
X-137813Y-473077D01*
X-151907Y-467947D01*
X-148829Y-459491D01*
G37*
G36*
X-137542Y-428482D02*
X-123448Y-433612D01*
X-126526Y-442068D01*
X-140620Y-436938D01*
X-137542Y-428482D01*
G37*
G36*
X-194874Y-442732D02*
X-180780Y-447862D01*
X-183858Y-456318D01*
X-197952Y-451188D01*
X-194874Y-442732D01*
G37*
G36*
X-183587Y-411723D02*
X-169493Y-416853D01*
X-172571Y-425309D01*
X-186665Y-420179D01*
X-183587Y-411723D01*
G37*
X24900Y-487900D03*
X24900Y-454900D03*
X-24100Y-487900D03*
X-24100Y-454900D03*
G36*
X180580Y-446862D02*
X194674Y-441732D01*
X197752Y-450188D01*
X183658Y-455318D01*
X180580Y-446862D01*
G37*
G36*
X169293Y-415853D02*
X183387Y-410723D01*
X186465Y-419179D01*
X172371Y-424309D01*
X169293Y-415853D01*
G37*
G36*
X134535Y-463621D02*
X148629Y-458491D01*
X151707Y-466947D01*
X137613Y-472077D01*
X134535Y-463621D01*
G37*
G36*
X123248Y-432612D02*
X137342Y-427482D01*
X140420Y-435938D01*
X126326Y-441068D01*
X123248Y-432612D01*
G37*
G36*
X322337Y-357664D02*
X333826Y-348023D01*
X339611Y-354918D01*
X328122Y-364559D01*
X322337Y-357664D01*
G37*
G36*
X301125Y-332385D02*
X312614Y-322744D01*
X318399Y-329639D01*
X306910Y-339280D01*
X301125Y-332385D01*
G37*
G36*
X284801Y-389161D02*
X296290Y-379520D01*
X302075Y-386415D01*
X290586Y-396056D01*
X284801Y-389161D01*
G37*
G36*
X263589Y-363882D02*
X275078Y-354241D01*
X280863Y-361136D01*
X269374Y-370777D01*
X263589Y-363882D01*
G37*
G36*
X426592Y-226677D02*
X434092Y-213687D01*
X441886Y-218187D01*
X434386Y-231177D01*
X426592Y-226677D01*
G37*
G36*
X398014Y-210177D02*
X405514Y-197187D01*
X413308Y-201687D01*
X405808Y-214677D01*
X398014Y-210177D01*
G37*
G36*
X402092Y-269113D02*
X409592Y-256123D01*
X417386Y-260623D01*
X409886Y-273613D01*
X402092Y-269113D01*
G37*
G36*
X373514Y-252613D02*
X381014Y-239623D01*
X388808Y-244123D01*
X381308Y-257113D01*
X373514Y-252613D01*
G37*
G36*
X476971Y-66241D02*
X479575Y-51470D01*
X488437Y-53033D01*
X485833Y-67804D01*
X476971Y-66241D01*
G37*
G36*
X444472Y-60511D02*
X447076Y-45740D01*
X455938Y-47303D01*
X453334Y-62074D01*
X444472Y-60511D01*
G37*
G36*
X468462Y-114497D02*
X471066Y-99726D01*
X479928Y-101289D01*
X477324Y-116060D01*
X468462Y-114497D01*
G37*
G36*
X435963Y-108767D02*
X438567Y-93996D01*
X447429Y-95559D01*
X444825Y-110330D01*
X435963Y-108767D01*
G37*
M02*
