G04 EAGLE Gerber RS-274X export*
G75*
%MOMM*%
%FSLAX34Y34*%
%LPD*%
%INBottom Paste*%
%IPPOS*%
%AMOC8*
5,1,8,0,0,1.08239X$1,22.5*%
G01*
%ADD10C,0.254000*%


D10*
X146680Y-74985D02*
X154300Y-74985D01*
X154300Y-86415D01*
X146680Y-86415D01*
X146680Y-74985D01*
X146680Y-84002D02*
X154300Y-84002D01*
X154300Y-81589D02*
X146680Y-81589D01*
X146680Y-79176D02*
X154300Y-79176D01*
X154300Y-76763D02*
X146680Y-76763D01*
X136520Y-74985D02*
X128900Y-74985D01*
X136520Y-74985D02*
X136520Y-86415D01*
X128900Y-86415D01*
X128900Y-74985D01*
X128900Y-84002D02*
X136520Y-84002D01*
X136520Y-81589D02*
X128900Y-81589D01*
X128900Y-79176D02*
X136520Y-79176D01*
X136520Y-76763D02*
X128900Y-76763D01*
X-466759Y-82969D02*
X-466826Y-75351D01*
X-455397Y-75251D01*
X-455330Y-82869D01*
X-466759Y-82969D01*
X-466780Y-80556D02*
X-455350Y-80556D01*
X-455372Y-78143D02*
X-466801Y-78143D01*
X-466823Y-75730D02*
X-455393Y-75730D01*
X-466670Y-93131D02*
X-466603Y-100749D01*
X-466670Y-93131D02*
X-455241Y-93031D01*
X-455174Y-100649D01*
X-466603Y-100749D01*
X-466624Y-98336D02*
X-455194Y-98336D01*
X-455216Y-95923D02*
X-466645Y-95923D01*
X-466667Y-93510D02*
X-455237Y-93510D01*
X-128185Y-94900D02*
X-128185Y-87280D01*
X-128185Y-94900D02*
X-139615Y-94900D01*
X-139615Y-87280D01*
X-128185Y-87280D01*
X-128185Y-92487D02*
X-139615Y-92487D01*
X-139615Y-90074D02*
X-128185Y-90074D01*
X-128185Y-87661D02*
X-139615Y-87661D01*
X-128185Y-77120D02*
X-128185Y-69500D01*
X-128185Y-77120D02*
X-139615Y-77120D01*
X-139615Y-69500D01*
X-128185Y-69500D01*
X-128185Y-74707D02*
X-139615Y-74707D01*
X-139615Y-72294D02*
X-128185Y-72294D01*
X-128185Y-69881D02*
X-139615Y-69881D01*
X297900Y-364315D02*
X305520Y-364315D01*
X297900Y-364315D02*
X297900Y-352885D01*
X305520Y-352885D01*
X305520Y-364315D01*
X305520Y-361902D02*
X297900Y-361902D01*
X297900Y-359489D02*
X305520Y-359489D01*
X305520Y-357076D02*
X297900Y-357076D01*
X297900Y-354663D02*
X305520Y-354663D01*
X315680Y-364315D02*
X323300Y-364315D01*
X315680Y-364315D02*
X315680Y-352885D01*
X323300Y-352885D01*
X323300Y-364315D01*
X323300Y-361902D02*
X315680Y-361902D01*
X315680Y-359489D02*
X323300Y-359489D01*
X323300Y-357076D02*
X315680Y-357076D01*
X315680Y-354663D02*
X323300Y-354663D01*
X402900Y-235515D02*
X410520Y-235515D01*
X402900Y-235515D02*
X402900Y-224085D01*
X410520Y-224085D01*
X410520Y-235515D01*
X410520Y-233102D02*
X402900Y-233102D01*
X402900Y-230689D02*
X410520Y-230689D01*
X410520Y-228276D02*
X402900Y-228276D01*
X402900Y-225863D02*
X410520Y-225863D01*
X420680Y-235515D02*
X428300Y-235515D01*
X420680Y-235515D02*
X420680Y-224085D01*
X428300Y-224085D01*
X428300Y-235515D01*
X428300Y-233102D02*
X420680Y-233102D01*
X420680Y-230689D02*
X428300Y-230689D01*
X428300Y-228276D02*
X420680Y-228276D01*
X420680Y-225863D02*
X428300Y-225863D01*
X133285Y87980D02*
X133285Y95600D01*
X144715Y95600D01*
X144715Y87980D01*
X133285Y87980D01*
X133285Y90393D02*
X144715Y90393D01*
X144715Y92806D02*
X133285Y92806D01*
X133285Y95219D02*
X144715Y95219D01*
X133285Y77820D02*
X133285Y70200D01*
X133285Y77820D02*
X144715Y77820D01*
X144715Y70200D01*
X133285Y70200D01*
X133285Y72613D02*
X144715Y72613D01*
X144715Y75026D02*
X133285Y75026D01*
X133285Y77439D02*
X144715Y77439D01*
X-149085Y-276480D02*
X-149085Y-284100D01*
X-160515Y-284100D01*
X-160515Y-276480D01*
X-149085Y-276480D01*
X-149085Y-281687D02*
X-160515Y-281687D01*
X-160515Y-279274D02*
X-149085Y-279274D01*
X-149085Y-276861D02*
X-160515Y-276861D01*
X-149085Y-266320D02*
X-149085Y-258700D01*
X-149085Y-266320D02*
X-160515Y-266320D01*
X-160515Y-258700D01*
X-149085Y-258700D01*
X-149085Y-263907D02*
X-160515Y-263907D01*
X-160515Y-261494D02*
X-149085Y-261494D01*
X-149085Y-259081D02*
X-160515Y-259081D01*
X459115Y-94100D02*
X459115Y-86480D01*
X459115Y-94100D02*
X447685Y-94100D01*
X447685Y-86480D01*
X459115Y-86480D01*
X459115Y-91687D02*
X447685Y-91687D01*
X447685Y-89274D02*
X459115Y-89274D01*
X459115Y-86861D02*
X447685Y-86861D01*
X459115Y-76320D02*
X459115Y-68700D01*
X459115Y-76320D02*
X447685Y-76320D01*
X447685Y-68700D01*
X459115Y-68700D01*
X459115Y-73907D02*
X447685Y-73907D01*
X447685Y-71494D02*
X459115Y-71494D01*
X459115Y-69081D02*
X447685Y-69081D01*
X467315Y74400D02*
X467315Y82020D01*
X467315Y74400D02*
X455885Y74400D01*
X455885Y82020D01*
X467315Y82020D01*
X467315Y76813D02*
X455885Y76813D01*
X455885Y79226D02*
X467315Y79226D01*
X467315Y81639D02*
X455885Y81639D01*
X467315Y92180D02*
X467315Y99800D01*
X467315Y92180D02*
X455885Y92180D01*
X455885Y99800D01*
X467315Y99800D01*
X467315Y94593D02*
X455885Y94593D01*
X455885Y97006D02*
X467315Y97006D01*
X467315Y99419D02*
X455885Y99419D01*
X405515Y224900D02*
X405515Y232520D01*
X405515Y224900D02*
X394085Y224900D01*
X394085Y232520D01*
X405515Y232520D01*
X405515Y227313D02*
X394085Y227313D01*
X394085Y229726D02*
X405515Y229726D01*
X405515Y232139D02*
X394085Y232139D01*
X405515Y242680D02*
X405515Y250300D01*
X405515Y242680D02*
X394085Y242680D01*
X394085Y250300D01*
X405515Y250300D01*
X405515Y245093D02*
X394085Y245093D01*
X394085Y247506D02*
X405515Y247506D01*
X405515Y249919D02*
X394085Y249919D01*
X304715Y351900D02*
X304715Y359520D01*
X304715Y351900D02*
X293285Y351900D01*
X293285Y359520D01*
X304715Y359520D01*
X304715Y354313D02*
X293285Y354313D01*
X293285Y356726D02*
X304715Y356726D01*
X304715Y359139D02*
X293285Y359139D01*
X304715Y369680D02*
X304715Y377300D01*
X304715Y369680D02*
X293285Y369680D01*
X293285Y377300D01*
X304715Y377300D01*
X304715Y372093D02*
X293285Y372093D01*
X293285Y374506D02*
X304715Y374506D01*
X304715Y376919D02*
X293285Y376919D01*
X-7285Y-14680D02*
X-7285Y-22300D01*
X-18715Y-22300D01*
X-18715Y-14680D01*
X-7285Y-14680D01*
X-7285Y-19887D02*
X-18715Y-19887D01*
X-18715Y-17474D02*
X-7285Y-17474D01*
X-7285Y-15061D02*
X-18715Y-15061D01*
X-7285Y-4520D02*
X-7285Y3100D01*
X-7285Y-4520D02*
X-18715Y-4520D01*
X-18715Y3100D01*
X-7285Y3100D01*
X-7285Y-2107D02*
X-18715Y-2107D01*
X-18715Y306D02*
X-7285Y306D01*
X-7285Y2719D02*
X-18715Y2719D01*
X-155400Y446915D02*
X-163020Y446915D01*
X-155400Y446915D02*
X-155400Y435485D01*
X-163020Y435485D01*
X-163020Y446915D01*
X-163020Y437898D02*
X-155400Y437898D01*
X-155400Y440311D02*
X-163020Y440311D01*
X-163020Y442724D02*
X-155400Y442724D01*
X-155400Y445137D02*
X-163020Y445137D01*
X-173180Y446915D02*
X-180800Y446915D01*
X-173180Y446915D02*
X-173180Y435485D01*
X-180800Y435485D01*
X-180800Y446915D01*
X-180800Y437898D02*
X-173180Y437898D01*
X-173180Y440311D02*
X-180800Y440311D01*
X-180800Y442724D02*
X-173180Y442724D01*
X-173180Y445137D02*
X-180800Y445137D01*
X-474615Y106100D02*
X-474615Y98480D01*
X-474615Y106100D02*
X-463185Y106100D01*
X-463185Y98480D01*
X-474615Y98480D01*
X-474615Y100893D02*
X-463185Y100893D01*
X-463185Y103306D02*
X-474615Y103306D01*
X-474615Y105719D02*
X-463185Y105719D01*
X-474615Y88320D02*
X-474615Y80700D01*
X-474615Y88320D02*
X-463185Y88320D01*
X-463185Y80700D01*
X-474615Y80700D01*
X-474615Y83113D02*
X-463185Y83113D01*
X-463185Y85526D02*
X-474615Y85526D01*
X-474615Y87939D02*
X-463185Y87939D01*
X154800Y-447815D02*
X162420Y-447815D01*
X154800Y-447815D02*
X154800Y-436385D01*
X162420Y-436385D01*
X162420Y-447815D01*
X162420Y-445402D02*
X154800Y-445402D01*
X154800Y-442989D02*
X162420Y-442989D01*
X162420Y-440576D02*
X154800Y-440576D01*
X154800Y-438163D02*
X162420Y-438163D01*
X172580Y-447815D02*
X180200Y-447815D01*
X172580Y-447815D02*
X172580Y-436385D01*
X180200Y-436385D01*
X180200Y-447815D01*
X180200Y-445402D02*
X172580Y-445402D01*
X172580Y-442989D02*
X180200Y-442989D01*
X180200Y-440576D02*
X172580Y-440576D01*
X172580Y-438163D02*
X180200Y-438163D01*
X-4580Y-476515D02*
X-12200Y-476515D01*
X-12200Y-465085D01*
X-4580Y-465085D01*
X-4580Y-476515D01*
X-4580Y-474102D02*
X-12200Y-474102D01*
X-12200Y-471689D02*
X-4580Y-471689D01*
X-4580Y-469276D02*
X-12200Y-469276D01*
X-12200Y-466863D02*
X-4580Y-466863D01*
X5580Y-476515D02*
X13200Y-476515D01*
X5580Y-476515D02*
X5580Y-465085D01*
X13200Y-465085D01*
X13200Y-476515D01*
X13200Y-474102D02*
X5580Y-474102D01*
X5580Y-471689D02*
X13200Y-471689D01*
X13200Y-469276D02*
X5580Y-469276D01*
X5580Y-466863D02*
X13200Y-466863D01*
X-304715Y-364420D02*
X-304715Y-356800D01*
X-293285Y-356800D01*
X-293285Y-364420D01*
X-304715Y-364420D01*
X-304715Y-362007D02*
X-293285Y-362007D01*
X-293285Y-359594D02*
X-304715Y-359594D01*
X-304715Y-357181D02*
X-293285Y-357181D01*
X-304715Y-374580D02*
X-304715Y-382200D01*
X-304715Y-374580D02*
X-293285Y-374580D01*
X-293285Y-382200D01*
X-304715Y-382200D01*
X-304715Y-379787D02*
X-293285Y-379787D01*
X-293285Y-377374D02*
X-304715Y-377374D01*
X-304715Y-374961D02*
X-293285Y-374961D01*
X-312585Y-18700D02*
X-312585Y-11080D01*
X-312585Y-18700D02*
X-324015Y-18700D01*
X-324015Y-11080D01*
X-312585Y-11080D01*
X-312585Y-16287D02*
X-324015Y-16287D01*
X-324015Y-13874D02*
X-312585Y-13874D01*
X-312585Y-11461D02*
X-324015Y-11461D01*
X-312585Y-920D02*
X-312585Y6700D01*
X-312585Y-920D02*
X-324015Y-920D01*
X-324015Y6700D01*
X-312585Y6700D01*
X-312585Y1493D02*
X-324015Y1493D01*
X-324015Y3906D02*
X-312585Y3906D01*
X-312585Y6319D02*
X-324015Y6319D01*
X10580Y-310385D02*
X18200Y-310385D01*
X18200Y-321815D01*
X10580Y-321815D01*
X10580Y-310385D01*
X10580Y-319402D02*
X18200Y-319402D01*
X18200Y-316989D02*
X10580Y-316989D01*
X10580Y-314576D02*
X18200Y-314576D01*
X18200Y-312163D02*
X10580Y-312163D01*
X420Y-310385D02*
X-7200Y-310385D01*
X420Y-310385D02*
X420Y-321815D01*
X-7200Y-321815D01*
X-7200Y-310385D01*
X-7200Y-319402D02*
X420Y-319402D01*
X420Y-316989D02*
X-7200Y-316989D01*
X-7200Y-314576D02*
X420Y-314576D01*
X420Y-312163D02*
X-7200Y-312163D01*
X-256800Y-154185D02*
X-264420Y-154185D01*
X-256800Y-154185D02*
X-256800Y-165615D01*
X-264420Y-165615D01*
X-264420Y-154185D01*
X-264420Y-163202D02*
X-256800Y-163202D01*
X-256800Y-160789D02*
X-264420Y-160789D01*
X-264420Y-158376D02*
X-256800Y-158376D01*
X-256800Y-155963D02*
X-264420Y-155963D01*
X-274580Y-154185D02*
X-282200Y-154185D01*
X-274580Y-154185D02*
X-274580Y-165615D01*
X-282200Y-165615D01*
X-282200Y-154185D01*
X-282200Y-163202D02*
X-274580Y-163202D01*
X-274580Y-160789D02*
X-282200Y-160789D01*
X-282200Y-158376D02*
X-274580Y-158376D01*
X-274580Y-155963D02*
X-282200Y-155963D01*
X-155207Y73379D02*
X-147587Y73379D01*
X-155207Y73379D02*
X-155207Y84809D01*
X-147587Y84809D01*
X-147587Y73379D01*
X-147587Y75792D02*
X-155207Y75792D01*
X-155207Y78205D02*
X-147587Y78205D01*
X-147587Y80618D02*
X-155207Y80618D01*
X-155207Y83031D02*
X-147587Y83031D01*
X-137427Y73379D02*
X-129807Y73379D01*
X-137427Y73379D02*
X-137427Y84809D01*
X-129807Y84809D01*
X-129807Y73379D01*
X-129807Y75792D02*
X-137427Y75792D01*
X-137427Y78205D02*
X-129807Y78205D01*
X-129807Y80618D02*
X-137427Y80618D01*
X-137427Y83031D02*
X-129807Y83031D01*
X14080Y-159785D02*
X21700Y-159785D01*
X21700Y-171215D01*
X14080Y-171215D01*
X14080Y-159785D01*
X14080Y-168802D02*
X21700Y-168802D01*
X21700Y-166389D02*
X14080Y-166389D01*
X14080Y-163976D02*
X21700Y-163976D01*
X21700Y-161563D02*
X14080Y-161563D01*
X3920Y-159785D02*
X-3700Y-159785D01*
X3920Y-159785D02*
X3920Y-171215D01*
X-3700Y-171215D01*
X-3700Y-159785D01*
X-3700Y-168802D02*
X3920Y-168802D01*
X3920Y-166389D02*
X-3700Y-166389D01*
X-3700Y-163976D02*
X3920Y-163976D01*
X3920Y-161563D02*
X-3700Y-161563D01*
X163680Y452415D02*
X171300Y452415D01*
X171300Y440985D01*
X163680Y440985D01*
X163680Y452415D01*
X163680Y443398D02*
X171300Y443398D01*
X171300Y445811D02*
X163680Y445811D01*
X163680Y448224D02*
X171300Y448224D01*
X171300Y450637D02*
X163680Y450637D01*
X153520Y452415D02*
X145900Y452415D01*
X153520Y452415D02*
X153520Y440985D01*
X145900Y440985D01*
X145900Y452415D01*
X145900Y443398D02*
X153520Y443398D01*
X153520Y445811D02*
X145900Y445811D01*
X145900Y448224D02*
X153520Y448224D01*
X153520Y450637D02*
X145900Y450637D01*
X11200Y481415D02*
X3580Y481415D01*
X11200Y481415D02*
X11200Y469985D01*
X3580Y469985D01*
X3580Y481415D01*
X3580Y472398D02*
X11200Y472398D01*
X11200Y474811D02*
X3580Y474811D01*
X3580Y477224D02*
X11200Y477224D01*
X11200Y479637D02*
X3580Y479637D01*
X-6580Y481415D02*
X-14200Y481415D01*
X-6580Y481415D02*
X-6580Y469985D01*
X-14200Y469985D01*
X-14200Y481415D01*
X-14200Y472398D02*
X-6580Y472398D01*
X-6580Y474811D02*
X-14200Y474811D01*
X-14200Y477224D02*
X-6580Y477224D01*
X-6580Y479637D02*
X-14200Y479637D01*
X-418615Y245700D02*
X-418615Y238080D01*
X-418615Y245700D02*
X-407185Y245700D01*
X-407185Y238080D01*
X-418615Y238080D01*
X-418615Y240493D02*
X-407185Y240493D01*
X-407185Y242906D02*
X-418615Y242906D01*
X-418615Y245319D02*
X-407185Y245319D01*
X-418615Y227920D02*
X-418615Y220300D01*
X-418615Y227920D02*
X-407185Y227920D01*
X-407185Y220300D01*
X-418615Y220300D01*
X-418615Y222713D02*
X-407185Y222713D01*
X-407185Y225126D02*
X-418615Y225126D01*
X-418615Y227539D02*
X-407185Y227539D01*
X-156815Y-437200D02*
X-156815Y-444820D01*
X-156815Y-437200D02*
X-145385Y-437200D01*
X-145385Y-444820D01*
X-156815Y-444820D01*
X-156815Y-442407D02*
X-145385Y-442407D01*
X-145385Y-439994D02*
X-156815Y-439994D01*
X-156815Y-437581D02*
X-145385Y-437581D01*
X-156815Y-454980D02*
X-156815Y-462600D01*
X-156815Y-454980D02*
X-145385Y-454980D01*
X-145385Y-462600D01*
X-156815Y-462600D01*
X-156815Y-460187D02*
X-145385Y-460187D01*
X-145385Y-457774D02*
X-156815Y-457774D01*
X-156815Y-455361D02*
X-145385Y-455361D01*
X-410015Y-243820D02*
X-410015Y-236200D01*
X-398585Y-236200D01*
X-398585Y-243820D01*
X-410015Y-243820D01*
X-410015Y-241407D02*
X-398585Y-241407D01*
X-398585Y-238994D02*
X-410015Y-238994D01*
X-410015Y-236581D02*
X-398585Y-236581D01*
X-410015Y-253980D02*
X-410015Y-261600D01*
X-410015Y-253980D02*
X-398585Y-253980D01*
X-398585Y-261600D01*
X-410015Y-261600D01*
X-410015Y-259187D02*
X-398585Y-259187D01*
X-398585Y-256774D02*
X-410015Y-256774D01*
X-410015Y-254361D02*
X-398585Y-254361D01*
X-265285Y138200D02*
X-265285Y145820D01*
X-265285Y138200D02*
X-276715Y138200D01*
X-276715Y145820D01*
X-265285Y145820D01*
X-265285Y140613D02*
X-276715Y140613D01*
X-276715Y143026D02*
X-265285Y143026D01*
X-265285Y145439D02*
X-276715Y145439D01*
X-265285Y155980D02*
X-265285Y163600D01*
X-265285Y155980D02*
X-276715Y155980D01*
X-276715Y163600D01*
X-265285Y163600D01*
X-265285Y158393D02*
X-276715Y158393D01*
X-276715Y160806D02*
X-265285Y160806D01*
X-265285Y163219D02*
X-276715Y163219D01*
X150585Y277680D02*
X150585Y285300D01*
X162015Y285300D01*
X162015Y277680D01*
X150585Y277680D01*
X150585Y280093D02*
X162015Y280093D01*
X162015Y282506D02*
X150585Y282506D01*
X150585Y284919D02*
X162015Y284919D01*
X150585Y267520D02*
X150585Y259900D01*
X150585Y267520D02*
X162015Y267520D01*
X162015Y259900D01*
X150585Y259900D01*
X150585Y262313D02*
X162015Y262313D01*
X162015Y264726D02*
X150585Y264726D01*
X150585Y267139D02*
X162015Y267139D01*
X159680Y-262385D02*
X167300Y-262385D01*
X167300Y-273815D01*
X159680Y-273815D01*
X159680Y-262385D01*
X159680Y-271402D02*
X167300Y-271402D01*
X167300Y-268989D02*
X159680Y-268989D01*
X159680Y-266576D02*
X167300Y-266576D01*
X167300Y-264163D02*
X159680Y-264163D01*
X149520Y-262385D02*
X141900Y-262385D01*
X149520Y-262385D02*
X149520Y-273815D01*
X141900Y-273815D01*
X141900Y-262385D01*
X141900Y-271402D02*
X149520Y-271402D01*
X149520Y-268989D02*
X141900Y-268989D01*
X141900Y-266576D02*
X149520Y-266576D01*
X149520Y-264163D02*
X141900Y-264163D01*
X-11180Y159685D02*
X-18800Y159685D01*
X-18800Y171115D01*
X-11180Y171115D01*
X-11180Y159685D01*
X-11180Y162098D02*
X-18800Y162098D01*
X-18800Y164511D02*
X-11180Y164511D01*
X-11180Y166924D02*
X-18800Y166924D01*
X-18800Y169337D02*
X-11180Y169337D01*
X-1020Y159685D02*
X6600Y159685D01*
X-1020Y159685D02*
X-1020Y171115D01*
X6600Y171115D01*
X6600Y159685D01*
X6600Y162098D02*
X-1020Y162098D01*
X-1020Y164511D02*
X6600Y164511D01*
X6600Y166924D02*
X-1020Y166924D01*
X-1020Y169337D02*
X6600Y169337D01*
X-295700Y368115D02*
X-303320Y368115D01*
X-295700Y368115D02*
X-295700Y356685D01*
X-303320Y356685D01*
X-303320Y368115D01*
X-303320Y359098D02*
X-295700Y359098D01*
X-295700Y361511D02*
X-303320Y361511D01*
X-303320Y363924D02*
X-295700Y363924D01*
X-295700Y366337D02*
X-303320Y366337D01*
X-313480Y368115D02*
X-321100Y368115D01*
X-313480Y368115D02*
X-313480Y356685D01*
X-321100Y356685D01*
X-321100Y368115D01*
X-321100Y359098D02*
X-313480Y359098D01*
X-313480Y361511D02*
X-321100Y361511D01*
X-321100Y363924D02*
X-313480Y363924D01*
X-313480Y366337D02*
X-321100Y366337D01*
X-5315Y327400D02*
X-5315Y319780D01*
X-5315Y327400D02*
X6115Y327400D01*
X6115Y319780D01*
X-5315Y319780D01*
X-5315Y322193D02*
X6115Y322193D01*
X6115Y324606D02*
X-5315Y324606D01*
X-5315Y327019D02*
X6115Y327019D01*
X-5315Y309620D02*
X-5315Y302000D01*
X-5315Y309620D02*
X6115Y309620D01*
X6115Y302000D01*
X-5315Y302000D01*
X-5315Y304413D02*
X6115Y304413D01*
X6115Y306826D02*
X-5315Y306826D01*
X-5315Y309239D02*
X6115Y309239D01*
X-160780Y259485D02*
X-168400Y259485D01*
X-168400Y270915D01*
X-160780Y270915D01*
X-160780Y259485D01*
X-160780Y261898D02*
X-168400Y261898D01*
X-168400Y264311D02*
X-160780Y264311D01*
X-160780Y266724D02*
X-168400Y266724D01*
X-168400Y269137D02*
X-160780Y269137D01*
X-150620Y259485D02*
X-143000Y259485D01*
X-150620Y259485D02*
X-150620Y270915D01*
X-143000Y270915D01*
X-143000Y259485D01*
X-143000Y261898D02*
X-150620Y261898D01*
X-150620Y264311D02*
X-143000Y264311D01*
X-143000Y266724D02*
X-150620Y266724D01*
X-150620Y269137D02*
X-143000Y269137D01*
X262285Y169400D02*
X262285Y161780D01*
X262285Y169400D02*
X273715Y169400D01*
X273715Y161780D01*
X262285Y161780D01*
X262285Y164193D02*
X273715Y164193D01*
X273715Y166606D02*
X262285Y166606D01*
X262285Y169019D02*
X273715Y169019D01*
X262285Y151620D02*
X262285Y144000D01*
X262285Y151620D02*
X273715Y151620D01*
X273715Y144000D01*
X262285Y144000D01*
X262285Y146413D02*
X273715Y146413D01*
X273715Y148826D02*
X262285Y148826D01*
X262285Y151239D02*
X273715Y151239D01*
X297585Y12400D02*
X297585Y4780D01*
X297585Y12400D02*
X309015Y12400D01*
X309015Y4780D01*
X297585Y4780D01*
X297585Y7193D02*
X309015Y7193D01*
X309015Y9606D02*
X297585Y9606D01*
X297585Y12019D02*
X309015Y12019D01*
X297585Y-5380D02*
X297585Y-13000D01*
X297585Y-5380D02*
X309015Y-5380D01*
X309015Y-13000D01*
X297585Y-13000D01*
X297585Y-10587D02*
X309015Y-10587D01*
X309015Y-8174D02*
X297585Y-8174D01*
X297585Y-5761D02*
X309015Y-5761D01*
X280400Y-149385D02*
X272780Y-149385D01*
X280400Y-149385D02*
X280400Y-160815D01*
X272780Y-160815D01*
X272780Y-149385D01*
X272780Y-158402D02*
X280400Y-158402D01*
X280400Y-155989D02*
X272780Y-155989D01*
X272780Y-153576D02*
X280400Y-153576D01*
X280400Y-151163D02*
X272780Y-151163D01*
X262620Y-149385D02*
X255000Y-149385D01*
X262620Y-149385D02*
X262620Y-160815D01*
X255000Y-160815D01*
X255000Y-149385D01*
X255000Y-158402D02*
X262620Y-158402D01*
X262620Y-155989D02*
X255000Y-155989D01*
X255000Y-153576D02*
X262620Y-153576D01*
X262620Y-151163D02*
X255000Y-151163D01*
M02*
