G04 EAGLE Gerber RS-274X export*
G75*
%MOMM*%
%FSLAX34Y34*%
%LPD*%
%INBottom Solder Mask*%
%IPPOS*%
%AMOC8*
5,1,8,0,0,1.08239X$1,22.5*%
G01*
%ADD10C,3.101600*%
%ADD11C,0.357631*%
%ADD12C,1.625600*%


D10*
X-434000Y0D03*
X434000Y0D03*
D11*
X154290Y-74995D02*
X146690Y-74995D01*
X154290Y-74995D02*
X154290Y-86405D01*
X146690Y-86405D01*
X146690Y-74995D01*
X146690Y-83008D02*
X154290Y-83008D01*
X154290Y-79611D02*
X146690Y-79611D01*
X146690Y-76214D02*
X154290Y-76214D01*
X136510Y-74995D02*
X128910Y-74995D01*
X136510Y-74995D02*
X136510Y-86405D01*
X128910Y-86405D01*
X128910Y-74995D01*
X128910Y-83008D02*
X136510Y-83008D01*
X136510Y-79611D02*
X128910Y-79611D01*
X128910Y-76214D02*
X136510Y-76214D01*
X-466749Y-82959D02*
X-466815Y-75360D01*
X-455407Y-75261D01*
X-455341Y-82860D01*
X-466749Y-82959D01*
X-466779Y-79562D02*
X-455370Y-79562D01*
X-455399Y-76165D02*
X-466808Y-76165D01*
X-466659Y-93140D02*
X-466593Y-100739D01*
X-466659Y-93140D02*
X-455251Y-93041D01*
X-455185Y-100640D01*
X-466593Y-100739D01*
X-466623Y-97342D02*
X-455214Y-97342D01*
X-455243Y-93945D02*
X-466652Y-93945D01*
X-128195Y-94890D02*
X-128195Y-87290D01*
X-128195Y-94890D02*
X-139605Y-94890D01*
X-139605Y-87290D01*
X-128195Y-87290D01*
X-128195Y-91493D02*
X-139605Y-91493D01*
X-139605Y-88096D02*
X-128195Y-88096D01*
X-128195Y-77110D02*
X-128195Y-69510D01*
X-128195Y-77110D02*
X-139605Y-77110D01*
X-139605Y-69510D01*
X-128195Y-69510D01*
X-128195Y-73713D02*
X-139605Y-73713D01*
X-139605Y-70316D02*
X-128195Y-70316D01*
X297910Y-364305D02*
X305510Y-364305D01*
X297910Y-364305D02*
X297910Y-352895D01*
X305510Y-352895D01*
X305510Y-364305D01*
X305510Y-360908D02*
X297910Y-360908D01*
X297910Y-357511D02*
X305510Y-357511D01*
X305510Y-354114D02*
X297910Y-354114D01*
X315690Y-364305D02*
X323290Y-364305D01*
X315690Y-364305D02*
X315690Y-352895D01*
X323290Y-352895D01*
X323290Y-364305D01*
X323290Y-360908D02*
X315690Y-360908D01*
X315690Y-357511D02*
X323290Y-357511D01*
X323290Y-354114D02*
X315690Y-354114D01*
X402910Y-235505D02*
X410510Y-235505D01*
X402910Y-235505D02*
X402910Y-224095D01*
X410510Y-224095D01*
X410510Y-235505D01*
X410510Y-232108D02*
X402910Y-232108D01*
X402910Y-228711D02*
X410510Y-228711D01*
X410510Y-225314D02*
X402910Y-225314D01*
X420690Y-235505D02*
X428290Y-235505D01*
X420690Y-235505D02*
X420690Y-224095D01*
X428290Y-224095D01*
X428290Y-235505D01*
X428290Y-232108D02*
X420690Y-232108D01*
X420690Y-228711D02*
X428290Y-228711D01*
X428290Y-225314D02*
X420690Y-225314D01*
X133295Y87990D02*
X133295Y95590D01*
X144705Y95590D01*
X144705Y87990D01*
X133295Y87990D01*
X133295Y91387D02*
X144705Y91387D01*
X144705Y94784D02*
X133295Y94784D01*
X133295Y77810D02*
X133295Y70210D01*
X133295Y77810D02*
X144705Y77810D01*
X144705Y70210D01*
X133295Y70210D01*
X133295Y73607D02*
X144705Y73607D01*
X144705Y77004D02*
X133295Y77004D01*
X-149095Y-276490D02*
X-149095Y-284090D01*
X-160505Y-284090D01*
X-160505Y-276490D01*
X-149095Y-276490D01*
X-149095Y-280693D02*
X-160505Y-280693D01*
X-160505Y-277296D02*
X-149095Y-277296D01*
X-149095Y-266310D02*
X-149095Y-258710D01*
X-149095Y-266310D02*
X-160505Y-266310D01*
X-160505Y-258710D01*
X-149095Y-258710D01*
X-149095Y-262913D02*
X-160505Y-262913D01*
X-160505Y-259516D02*
X-149095Y-259516D01*
X459105Y-94090D02*
X459105Y-86490D01*
X459105Y-94090D02*
X447695Y-94090D01*
X447695Y-86490D01*
X459105Y-86490D01*
X459105Y-90693D02*
X447695Y-90693D01*
X447695Y-87296D02*
X459105Y-87296D01*
X459105Y-76310D02*
X459105Y-68710D01*
X459105Y-76310D02*
X447695Y-76310D01*
X447695Y-68710D01*
X459105Y-68710D01*
X459105Y-72913D02*
X447695Y-72913D01*
X447695Y-69516D02*
X459105Y-69516D01*
X467305Y74410D02*
X467305Y82010D01*
X467305Y74410D02*
X455895Y74410D01*
X455895Y82010D01*
X467305Y82010D01*
X467305Y77807D02*
X455895Y77807D01*
X455895Y81204D02*
X467305Y81204D01*
X467305Y92190D02*
X467305Y99790D01*
X467305Y92190D02*
X455895Y92190D01*
X455895Y99790D01*
X467305Y99790D01*
X467305Y95587D02*
X455895Y95587D01*
X455895Y98984D02*
X467305Y98984D01*
X405505Y224910D02*
X405505Y232510D01*
X405505Y224910D02*
X394095Y224910D01*
X394095Y232510D01*
X405505Y232510D01*
X405505Y228307D02*
X394095Y228307D01*
X394095Y231704D02*
X405505Y231704D01*
X405505Y242690D02*
X405505Y250290D01*
X405505Y242690D02*
X394095Y242690D01*
X394095Y250290D01*
X405505Y250290D01*
X405505Y246087D02*
X394095Y246087D01*
X394095Y249484D02*
X405505Y249484D01*
X304705Y351910D02*
X304705Y359510D01*
X304705Y351910D02*
X293295Y351910D01*
X293295Y359510D01*
X304705Y359510D01*
X304705Y355307D02*
X293295Y355307D01*
X293295Y358704D02*
X304705Y358704D01*
X304705Y369690D02*
X304705Y377290D01*
X304705Y369690D02*
X293295Y369690D01*
X293295Y377290D01*
X304705Y377290D01*
X304705Y373087D02*
X293295Y373087D01*
X293295Y376484D02*
X304705Y376484D01*
X-7295Y-14690D02*
X-7295Y-22290D01*
X-18705Y-22290D01*
X-18705Y-14690D01*
X-7295Y-14690D01*
X-7295Y-18893D02*
X-18705Y-18893D01*
X-18705Y-15496D02*
X-7295Y-15496D01*
X-7295Y-4510D02*
X-7295Y3090D01*
X-7295Y-4510D02*
X-18705Y-4510D01*
X-18705Y3090D01*
X-7295Y3090D01*
X-7295Y-1113D02*
X-18705Y-1113D01*
X-18705Y2284D02*
X-7295Y2284D01*
X-155410Y446905D02*
X-163010Y446905D01*
X-155410Y446905D02*
X-155410Y435495D01*
X-163010Y435495D01*
X-163010Y446905D01*
X-163010Y438892D02*
X-155410Y438892D01*
X-155410Y442289D02*
X-163010Y442289D01*
X-163010Y445686D02*
X-155410Y445686D01*
X-173190Y446905D02*
X-180790Y446905D01*
X-173190Y446905D02*
X-173190Y435495D01*
X-180790Y435495D01*
X-180790Y446905D01*
X-180790Y438892D02*
X-173190Y438892D01*
X-173190Y442289D02*
X-180790Y442289D01*
X-180790Y445686D02*
X-173190Y445686D01*
X-474605Y106090D02*
X-474605Y98490D01*
X-474605Y106090D02*
X-463195Y106090D01*
X-463195Y98490D01*
X-474605Y98490D01*
X-474605Y101887D02*
X-463195Y101887D01*
X-463195Y105284D02*
X-474605Y105284D01*
X-474605Y88310D02*
X-474605Y80710D01*
X-474605Y88310D02*
X-463195Y88310D01*
X-463195Y80710D01*
X-474605Y80710D01*
X-474605Y84107D02*
X-463195Y84107D01*
X-463195Y87504D02*
X-474605Y87504D01*
X154810Y-447805D02*
X162410Y-447805D01*
X154810Y-447805D02*
X154810Y-436395D01*
X162410Y-436395D01*
X162410Y-447805D01*
X162410Y-444408D02*
X154810Y-444408D01*
X154810Y-441011D02*
X162410Y-441011D01*
X162410Y-437614D02*
X154810Y-437614D01*
X172590Y-447805D02*
X180190Y-447805D01*
X172590Y-447805D02*
X172590Y-436395D01*
X180190Y-436395D01*
X180190Y-447805D01*
X180190Y-444408D02*
X172590Y-444408D01*
X172590Y-441011D02*
X180190Y-441011D01*
X180190Y-437614D02*
X172590Y-437614D01*
X-4590Y-476505D02*
X-12190Y-476505D01*
X-12190Y-465095D01*
X-4590Y-465095D01*
X-4590Y-476505D01*
X-4590Y-473108D02*
X-12190Y-473108D01*
X-12190Y-469711D02*
X-4590Y-469711D01*
X-4590Y-466314D02*
X-12190Y-466314D01*
X5590Y-476505D02*
X13190Y-476505D01*
X5590Y-476505D02*
X5590Y-465095D01*
X13190Y-465095D01*
X13190Y-476505D01*
X13190Y-473108D02*
X5590Y-473108D01*
X5590Y-469711D02*
X13190Y-469711D01*
X13190Y-466314D02*
X5590Y-466314D01*
X-304705Y-364410D02*
X-304705Y-356810D01*
X-293295Y-356810D01*
X-293295Y-364410D01*
X-304705Y-364410D01*
X-304705Y-361013D02*
X-293295Y-361013D01*
X-293295Y-357616D02*
X-304705Y-357616D01*
X-304705Y-374590D02*
X-304705Y-382190D01*
X-304705Y-374590D02*
X-293295Y-374590D01*
X-293295Y-382190D01*
X-304705Y-382190D01*
X-304705Y-378793D02*
X-293295Y-378793D01*
X-293295Y-375396D02*
X-304705Y-375396D01*
X-312595Y-18690D02*
X-312595Y-11090D01*
X-312595Y-18690D02*
X-324005Y-18690D01*
X-324005Y-11090D01*
X-312595Y-11090D01*
X-312595Y-15293D02*
X-324005Y-15293D01*
X-324005Y-11896D02*
X-312595Y-11896D01*
X-312595Y-910D02*
X-312595Y6690D01*
X-312595Y-910D02*
X-324005Y-910D01*
X-324005Y6690D01*
X-312595Y6690D01*
X-312595Y2487D02*
X-324005Y2487D01*
X-324005Y5884D02*
X-312595Y5884D01*
X10590Y-310395D02*
X18190Y-310395D01*
X18190Y-321805D01*
X10590Y-321805D01*
X10590Y-310395D01*
X10590Y-318408D02*
X18190Y-318408D01*
X18190Y-315011D02*
X10590Y-315011D01*
X10590Y-311614D02*
X18190Y-311614D01*
X410Y-310395D02*
X-7190Y-310395D01*
X410Y-310395D02*
X410Y-321805D01*
X-7190Y-321805D01*
X-7190Y-310395D01*
X-7190Y-318408D02*
X410Y-318408D01*
X410Y-315011D02*
X-7190Y-315011D01*
X-7190Y-311614D02*
X410Y-311614D01*
X-256810Y-154195D02*
X-264410Y-154195D01*
X-256810Y-154195D02*
X-256810Y-165605D01*
X-264410Y-165605D01*
X-264410Y-154195D01*
X-264410Y-162208D02*
X-256810Y-162208D01*
X-256810Y-158811D02*
X-264410Y-158811D01*
X-264410Y-155414D02*
X-256810Y-155414D01*
X-274590Y-154195D02*
X-282190Y-154195D01*
X-274590Y-154195D02*
X-274590Y-165605D01*
X-282190Y-165605D01*
X-282190Y-154195D01*
X-282190Y-162208D02*
X-274590Y-162208D01*
X-274590Y-158811D02*
X-282190Y-158811D01*
X-282190Y-155414D02*
X-274590Y-155414D01*
X-155197Y73389D02*
X-147597Y73389D01*
X-155197Y73389D02*
X-155197Y84799D01*
X-147597Y84799D01*
X-147597Y73389D01*
X-147597Y76786D02*
X-155197Y76786D01*
X-155197Y80183D02*
X-147597Y80183D01*
X-147597Y83580D02*
X-155197Y83580D01*
X-137417Y73389D02*
X-129817Y73389D01*
X-137417Y73389D02*
X-137417Y84799D01*
X-129817Y84799D01*
X-129817Y73389D01*
X-129817Y76786D02*
X-137417Y76786D01*
X-137417Y80183D02*
X-129817Y80183D01*
X-129817Y83580D02*
X-137417Y83580D01*
X14090Y-159795D02*
X21690Y-159795D01*
X21690Y-171205D01*
X14090Y-171205D01*
X14090Y-159795D01*
X14090Y-167808D02*
X21690Y-167808D01*
X21690Y-164411D02*
X14090Y-164411D01*
X14090Y-161014D02*
X21690Y-161014D01*
X3910Y-159795D02*
X-3690Y-159795D01*
X3910Y-159795D02*
X3910Y-171205D01*
X-3690Y-171205D01*
X-3690Y-159795D01*
X-3690Y-167808D02*
X3910Y-167808D01*
X3910Y-164411D02*
X-3690Y-164411D01*
X-3690Y-161014D02*
X3910Y-161014D01*
X163690Y452405D02*
X171290Y452405D01*
X171290Y440995D01*
X163690Y440995D01*
X163690Y452405D01*
X163690Y444392D02*
X171290Y444392D01*
X171290Y447789D02*
X163690Y447789D01*
X163690Y451186D02*
X171290Y451186D01*
X153510Y452405D02*
X145910Y452405D01*
X153510Y452405D02*
X153510Y440995D01*
X145910Y440995D01*
X145910Y452405D01*
X145910Y444392D02*
X153510Y444392D01*
X153510Y447789D02*
X145910Y447789D01*
X145910Y451186D02*
X153510Y451186D01*
X11190Y481405D02*
X3590Y481405D01*
X11190Y481405D02*
X11190Y469995D01*
X3590Y469995D01*
X3590Y481405D01*
X3590Y473392D02*
X11190Y473392D01*
X11190Y476789D02*
X3590Y476789D01*
X3590Y480186D02*
X11190Y480186D01*
X-6590Y481405D02*
X-14190Y481405D01*
X-6590Y481405D02*
X-6590Y469995D01*
X-14190Y469995D01*
X-14190Y481405D01*
X-14190Y473392D02*
X-6590Y473392D01*
X-6590Y476789D02*
X-14190Y476789D01*
X-14190Y480186D02*
X-6590Y480186D01*
X-418605Y245690D02*
X-418605Y238090D01*
X-418605Y245690D02*
X-407195Y245690D01*
X-407195Y238090D01*
X-418605Y238090D01*
X-418605Y241487D02*
X-407195Y241487D01*
X-407195Y244884D02*
X-418605Y244884D01*
X-418605Y227910D02*
X-418605Y220310D01*
X-418605Y227910D02*
X-407195Y227910D01*
X-407195Y220310D01*
X-418605Y220310D01*
X-418605Y223707D02*
X-407195Y223707D01*
X-407195Y227104D02*
X-418605Y227104D01*
X-156805Y-437210D02*
X-156805Y-444810D01*
X-156805Y-437210D02*
X-145395Y-437210D01*
X-145395Y-444810D01*
X-156805Y-444810D01*
X-156805Y-441413D02*
X-145395Y-441413D01*
X-145395Y-438016D02*
X-156805Y-438016D01*
X-156805Y-454990D02*
X-156805Y-462590D01*
X-156805Y-454990D02*
X-145395Y-454990D01*
X-145395Y-462590D01*
X-156805Y-462590D01*
X-156805Y-459193D02*
X-145395Y-459193D01*
X-145395Y-455796D02*
X-156805Y-455796D01*
X-410005Y-243810D02*
X-410005Y-236210D01*
X-398595Y-236210D01*
X-398595Y-243810D01*
X-410005Y-243810D01*
X-410005Y-240413D02*
X-398595Y-240413D01*
X-398595Y-237016D02*
X-410005Y-237016D01*
X-410005Y-253990D02*
X-410005Y-261590D01*
X-410005Y-253990D02*
X-398595Y-253990D01*
X-398595Y-261590D01*
X-410005Y-261590D01*
X-410005Y-258193D02*
X-398595Y-258193D01*
X-398595Y-254796D02*
X-410005Y-254796D01*
X-265295Y138210D02*
X-265295Y145810D01*
X-265295Y138210D02*
X-276705Y138210D01*
X-276705Y145810D01*
X-265295Y145810D01*
X-265295Y141607D02*
X-276705Y141607D01*
X-276705Y145004D02*
X-265295Y145004D01*
X-265295Y155990D02*
X-265295Y163590D01*
X-265295Y155990D02*
X-276705Y155990D01*
X-276705Y163590D01*
X-265295Y163590D01*
X-265295Y159387D02*
X-276705Y159387D01*
X-276705Y162784D02*
X-265295Y162784D01*
X150595Y277690D02*
X150595Y285290D01*
X162005Y285290D01*
X162005Y277690D01*
X150595Y277690D01*
X150595Y281087D02*
X162005Y281087D01*
X162005Y284484D02*
X150595Y284484D01*
X150595Y267510D02*
X150595Y259910D01*
X150595Y267510D02*
X162005Y267510D01*
X162005Y259910D01*
X150595Y259910D01*
X150595Y263307D02*
X162005Y263307D01*
X162005Y266704D02*
X150595Y266704D01*
X159690Y-262395D02*
X167290Y-262395D01*
X167290Y-273805D01*
X159690Y-273805D01*
X159690Y-262395D01*
X159690Y-270408D02*
X167290Y-270408D01*
X167290Y-267011D02*
X159690Y-267011D01*
X159690Y-263614D02*
X167290Y-263614D01*
X149510Y-262395D02*
X141910Y-262395D01*
X149510Y-262395D02*
X149510Y-273805D01*
X141910Y-273805D01*
X141910Y-262395D01*
X141910Y-270408D02*
X149510Y-270408D01*
X149510Y-267011D02*
X141910Y-267011D01*
X141910Y-263614D02*
X149510Y-263614D01*
X-11190Y159695D02*
X-18790Y159695D01*
X-18790Y171105D01*
X-11190Y171105D01*
X-11190Y159695D01*
X-11190Y163092D02*
X-18790Y163092D01*
X-18790Y166489D02*
X-11190Y166489D01*
X-11190Y169886D02*
X-18790Y169886D01*
X-1010Y159695D02*
X6590Y159695D01*
X-1010Y159695D02*
X-1010Y171105D01*
X6590Y171105D01*
X6590Y159695D01*
X6590Y163092D02*
X-1010Y163092D01*
X-1010Y166489D02*
X6590Y166489D01*
X6590Y169886D02*
X-1010Y169886D01*
X-295710Y368105D02*
X-303310Y368105D01*
X-295710Y368105D02*
X-295710Y356695D01*
X-303310Y356695D01*
X-303310Y368105D01*
X-303310Y360092D02*
X-295710Y360092D01*
X-295710Y363489D02*
X-303310Y363489D01*
X-303310Y366886D02*
X-295710Y366886D01*
X-313490Y368105D02*
X-321090Y368105D01*
X-313490Y368105D02*
X-313490Y356695D01*
X-321090Y356695D01*
X-321090Y368105D01*
X-321090Y360092D02*
X-313490Y360092D01*
X-313490Y363489D02*
X-321090Y363489D01*
X-321090Y366886D02*
X-313490Y366886D01*
X-5305Y327390D02*
X-5305Y319790D01*
X-5305Y327390D02*
X6105Y327390D01*
X6105Y319790D01*
X-5305Y319790D01*
X-5305Y323187D02*
X6105Y323187D01*
X6105Y326584D02*
X-5305Y326584D01*
X-5305Y309610D02*
X-5305Y302010D01*
X-5305Y309610D02*
X6105Y309610D01*
X6105Y302010D01*
X-5305Y302010D01*
X-5305Y305407D02*
X6105Y305407D01*
X6105Y308804D02*
X-5305Y308804D01*
X-160790Y259495D02*
X-168390Y259495D01*
X-168390Y270905D01*
X-160790Y270905D01*
X-160790Y259495D01*
X-160790Y262892D02*
X-168390Y262892D01*
X-168390Y266289D02*
X-160790Y266289D01*
X-160790Y269686D02*
X-168390Y269686D01*
X-150610Y259495D02*
X-143010Y259495D01*
X-150610Y259495D02*
X-150610Y270905D01*
X-143010Y270905D01*
X-143010Y259495D01*
X-143010Y262892D02*
X-150610Y262892D01*
X-150610Y266289D02*
X-143010Y266289D01*
X-143010Y269686D02*
X-150610Y269686D01*
X262295Y169390D02*
X262295Y161790D01*
X262295Y169390D02*
X273705Y169390D01*
X273705Y161790D01*
X262295Y161790D01*
X262295Y165187D02*
X273705Y165187D01*
X273705Y168584D02*
X262295Y168584D01*
X262295Y151610D02*
X262295Y144010D01*
X262295Y151610D02*
X273705Y151610D01*
X273705Y144010D01*
X262295Y144010D01*
X262295Y147407D02*
X273705Y147407D01*
X273705Y150804D02*
X262295Y150804D01*
X297595Y12390D02*
X297595Y4790D01*
X297595Y12390D02*
X309005Y12390D01*
X309005Y4790D01*
X297595Y4790D01*
X297595Y8187D02*
X309005Y8187D01*
X309005Y11584D02*
X297595Y11584D01*
X297595Y-5390D02*
X297595Y-12990D01*
X297595Y-5390D02*
X309005Y-5390D01*
X309005Y-12990D01*
X297595Y-12990D01*
X297595Y-9593D02*
X309005Y-9593D01*
X309005Y-6196D02*
X297595Y-6196D01*
X280390Y-149395D02*
X272790Y-149395D01*
X280390Y-149395D02*
X280390Y-160805D01*
X272790Y-160805D01*
X272790Y-149395D01*
X272790Y-157408D02*
X280390Y-157408D01*
X280390Y-154011D02*
X272790Y-154011D01*
X272790Y-150614D02*
X280390Y-150614D01*
X262610Y-149395D02*
X255010Y-149395D01*
X262610Y-149395D02*
X262610Y-160805D01*
X255010Y-160805D01*
X255010Y-149395D01*
X255010Y-157408D02*
X262610Y-157408D01*
X262610Y-154011D02*
X255010Y-154011D01*
X255010Y-150614D02*
X262610Y-150614D01*
D12*
X-480000Y-25400D03*
X-480000Y0D03*
X-480000Y25400D03*
X477000Y-25400D03*
X477000Y0D03*
X477000Y25400D03*
M02*
