%
M48
M72
T01C0.01200
T02C0.01378
T03C0.04000
T04C0.11811
%
T01
X303072Y272954
X310552Y272954
T02
X130828Y115867
X136339Y111143
X122166Y137127
X87127Y157206
X83190Y164292
X80040Y186339
X61143Y246969
X55631Y301103
X63308Y307796
X86930Y368229
X128662Y415276
X156418Y444213
X161733Y447166
X184174Y445591
X254843Y397363
X247954Y397363
X254253Y338308
X247757Y338111
X236339Y403859
X315080Y375119
X309765Y377875
X356418Y323741
X353465Y329056
X366851Y259961
X366654Y265867
X369017Y282599
X369410Y274331
X343032Y199528
X346182Y204843
X356615Y212127
X417048Y196772
X414292Y191457
X396182Y177087
X354253Y131024
X327678Y102087
X321576Y99331
X298544Y103465
X228465Y147757
X234765Y147954
X249331Y262717
X243229Y267245
X179450Y273150
X237717Y279450
X243229Y273938
X292245Y228465
X295394Y233977
X305828Y241457
X292835Y158387
X298150Y161733
X311143Y162324
X246379Y142048
X228859Y207206
X235355Y207206
X425709Y244213
X420198Y233583
X419804Y265080
X424922Y326891
X426891Y321772
X395591Y385946
X398938Y381418
X403662Y357599
X348347Y431221
X352087Y427678
X360946Y407993
X287127Y458780
X292639Y456615
X307796Y442048
X246576Y454843
X225513Y464292
X219410Y463111
X190670Y387520
X184961Y383977
X172560Y382796
X236339Y344410
X305434Y294804
X301694Y299528
X300906Y313505
X352087Y343032
X302678Y389095
X178465Y298150
X191064Y316654
X188111Y310749
X173150Y273150
X182206Y233387
X182206Y246576
X127678Y221772
X131812Y217639
X136733Y201694
X167835Y170788
X173544Y168623
X180434Y157206
X246379Y201497
X261733Y82993
X256221Y82206
X237324Y93229
X176103Y105237
X191064Y88308
X197954Y86536
X56418Y220198
X56418Y225709
X117048Y285158
X117020Y279607
X109371Y275709
X107796Y270198
X110552Y267442
X118623Y270198
X124922Y267048
X128859Y333977
X139489Y346576
X136733Y340670
X65867Y349331
X68032Y354056
X103269Y405040
X107402Y408780
X375513Y137127
X379646Y140670
X421772Y298938
T03
X52481Y272954
X52481Y282954
X52481Y262954
X429253Y262954
X429253Y272954
X429253Y282954
T04
X70591Y272954
X412324Y272954
M30
