%
M48
M72
T01C0.01378
T02C0.01575
T03C0.02756
T04C0.03200
T05C0.03937
T06C0.04000
T07C0.07874
T08C0.09449
T09C0.09843
T10C0.19685
%
T01
X219408Y289193
T02
X78309Y197461
X83230Y197461
X88151Y197461
X93072Y197461
X97994Y197461
X102915Y197461
X107836Y197461
X112757Y197461
X117679Y197461
X122600Y197461
X127284Y214391
X127284Y219312
X127284Y224233
X127284Y229154
X242908Y193061
X247829Y193061
X252750Y193061
X257672Y193061
X262593Y193061
X267514Y193061
X272435Y193061
X277357Y193061
X282278Y193061
X287199Y193061
T03
X213199Y269811
X214774Y269791
X224420Y274516
X224420Y293630
X214774Y298335
X213199Y298354
T04
X228583Y97757
X238583Y97757
X110396Y214003
X110396Y224003
X110396Y234003
X110396Y244003
X110396Y254003
X110396Y264003
X110396Y274003
X80396Y274003
X80396Y264003
X80396Y254003
X80396Y244003
X80396Y234003
X80396Y224003
X80396Y214003
X339883Y183150
X358505Y196969
X368505Y196969
X339883Y213150
T05
X162415Y206581
X162543Y215967
X141163Y206773
X140908Y215776
X231888Y235732
X240750Y235704
X249605Y235732
X250630Y255094
X241683Y255154
X232914Y255094
T06
X60196Y82129
X60196Y152129
X60196Y142129
X60196Y132129
X60196Y122129
X60196Y112129
X60196Y102129
X60196Y92129
X50196Y92129
X50196Y82129
X50196Y102129
X50196Y112129
X50196Y122129
X50196Y132129
X50196Y142129
X50196Y152129
X50196Y162129
X50196Y172129
X60196Y172129
X60196Y162129
X60196Y182129
X50196Y182129
X50196Y192129
X60196Y192129
X60196Y202129
X50196Y202129
X50196Y212129
X60196Y212129
X60196Y222129
X50196Y222129
X50196Y232129
X60196Y232129
X60196Y242129
X50196Y242129
X50196Y252129
X60196Y252129
X60196Y262129
X50196Y262129
X50196Y272129
X60196Y272129
X126303Y246415
X210080Y219804
X220080Y219804
X230080Y219804
X240080Y219804
X250080Y219804
X260080Y219804
X270080Y219804
X280080Y219804
X290080Y219804
X300080Y219804
X310080Y219804
X320080Y219804
X257893Y275663
X295526Y270119
X295526Y280119
X295526Y290119
X276206Y317263
X276206Y327263
X276206Y337263
X257893Y295663
X228804Y83582
X238804Y83582
X248804Y83582
X258804Y83582
X268804Y83582
X278804Y83582
X288804Y83582
X298804Y83582
X350705Y148699
X350705Y166499
X376305Y166499
X376305Y148699
T07
X126196Y264014
T08
X178465Y220591
X178465Y78859
X381221Y272954
X223741Y332009
X398938Y78859
X398938Y220591
T09
X335946Y290670
X335946Y270985
X365473Y270985
X365473Y290670
T10
X333977Y328072
X373347Y328072
M30
